<?xml version="1.0" standalone="no"?>
<!DOCTYPE svg PUBLIC "-//W3C//DTD SVG 20010904//EN"
 "http://www.w3.org/TR/2001/REC-SVG-20010904/DTD/svg10.dtd">
<svg version="1.0" xmlns="http://www.w3.org/2000/svg"
 width="271.000000pt" height="271.000000pt" viewBox="0 0 271.000000 271.000000"
 preserveAspectRatio="xMidYMid meet">
<metadata>
Created by potrace 1.14, written by Peter Selinger 2001-2017
</metadata>
<g transform="translate(0.000000,271.000000) scale(0.100000,-0.100000)"
fill="#000000" stroke="none">
<path d="M310 2696 c-143 -40 -251 -147 -295 -293 -13 -41 -15 -196 -12 -1068
l2 -1020 32 -68 c58 -122 176 -215 303 -236 32 -6 469 -9 1045 -7 980 2 991 2
1047 23 113 42 205 132 251 245 21 53 21 56 23 1063 0 561 -3 1028 -8 1050
-16 72 -55 142 -111 198 -61 62 -127 99 -205 116 -80 17 -2011 14 -2072 -3z"/>
</g>
</svg>
